<svg id="clear-night" xmlns="http://www.w3.org/2000/svg" viewBox="0 0 82.11 69.54"><defs><style>.cls-1{fill:#f3f6f7;}.cls-2{fill:#f1ca39;}.cls-3{fill:#9ba6d5;}.cls-4{fill:#2e3192;}</style></defs><title>clear-night</title><path class="cls-1" d="M37.27,17.63c-19.52,24.64-2.08,58.18,28.54,57.7C59.22,84.9,41.57,87,30.44,82.48c-14.13-5.78-23.52-21.6-21.12-36C12,30.6,24.05,18.12,37.27,17.63Z" transform="translate(-8.95 -15.23)"/><path class="cls-2" d="M56.89,30.1c.89,5.38,3.45,8.18,9.72,6.6C62.34,40,59.44,43.1,63,48.58c-4.56-3-8.62-4.36-13.06.37,2.33-5.39,1.57-9.27-3.56-12.09,2.2-.14,4.6.21,6.55-.57C55.08,35.42,56,33,56.89,30.1Z" transform="translate(-8.95 -15.23)"/><path class="cls-3" d="M83.51,49.23c1.06,3.45,3.6,3.87,7.54,4-3.48,2-4.87,4-2.6,7.84-3.64-2.1-6.19-3.22-8.87-.31.63-3.24.07-5.61-2.7-7.41C80,53.19,82.21,52.2,83.51,49.23Z" transform="translate(-8.95 -15.23)"/><path class="cls-4" d="M75.51,15.23c1.06,3.45,3.6,3.87,7.54,4-3.48,2.05-4.87,4-2.6,7.84-3.64-2.1-6.19-3.22-8.87-.31.63-3.24.07-5.61-2.7-7.41C72,19.19,74.21,18.2,75.51,15.23Z" transform="translate(-8.95 -15.23)"/></svg>