<svg id="clear-day" xmlns="http://www.w3.org/2000/svg" viewBox="0 0 89.13 89.41"><defs><style>.cls-1{fill:#fecd32;}.cls-2{fill:#eac63a;}.cls-3{fill:#ebc438;}.cls-4{fill:#edc73d;}.cls-5{fill:#eec83c;}.cls-6{fill:#edc93d;}.cls-7{fill:#f1cb3c;}.cls-8{fill:#f8d134;}.cls-9{fill:#f3d135;}</style></defs><title>clear-day</title><path class="cls-1" d="M49.94,71.12a21.13,21.13,0,1,1,21.37-21A21.1,21.1,0,0,1,49.94,71.12Z" transform="translate(-5.44 -5.29)"/><path class="cls-2" d="M52.37,86.53c0,1.82,0,3.65,0,5.48,0,1.49-.61,2.71-2.24,2.7a2.42,2.42,0,0,1-2.43-2.63q-.11-5.47,0-11a2.46,2.46,0,0,1,2.37-2.71c1.91,0,2.35,1.47,2.33,3.13s0,3.32,0,5Z" transform="translate(-5.44 -5.29)"/><path class="cls-3" d="M52.39,13.43c0,1.83,0,3.65,0,5.48,0,1.59-.8,2.64-2.31,2.68s-2.37-1.23-2.4-2.66c-.09-3.65,0-7.3,0-11a2.44,2.44,0,0,1,2.39-2.68c1.54,0,2.31,1.11,2.32,2.66C52.4,9.77,52.39,11.6,52.39,13.43Z" transform="translate(-5.44 -5.29)"/><path class="cls-4" d="M80.11,17.81a2,2,0,0,1,2,1.13,2.39,2.39,0,0,1-.52,2.75c-2.67,2.71-5.34,5.41-8.07,8.06a2.34,2.34,0,0,1-4.07-1.39C69.37,26.79,78.45,17.82,80.11,17.81Z" transform="translate(-5.44 -5.29)"/><path class="cls-5" d="M19.76,82.16c-2-.48-2.7-2-1.32-3.59a82.21,82.21,0,0,1,8.46-8.44c1.39-1.19,3.29-1.07,3.6,1.45C30.72,73.4,21.78,82.27,19.76,82.16Z" transform="translate(-5.44 -5.29)"/><path class="cls-6" d="M79.71,82.17A8.47,8.47,0,0,1,78,81.09c-2.51-2.39-5-4.83-7.4-7.28-1-1-1.62-2.2-.5-3.48a2.3,2.3,0,0,1,3.53-.09c2.76,2.59,5.39,5.33,8.05,8A2.36,2.36,0,0,1,82.1,81C81.73,81.86,80.94,82.11,79.71,82.17Z" transform="translate(-5.44 -5.29)"/><path class="cls-7" d="M30.55,28.34a2,2,0,0,1-1.23,2,2.38,2.38,0,0,1-2.71-.6c-2.71-2.63-5.41-5.29-8.06-8A2.26,2.26,0,0,1,18,19a2.07,2.07,0,0,1,2-1.15C21.73,17.8,30.6,26.68,30.55,28.34Z" transform="translate(-5.44 -5.29)"/><path class="cls-8" d="M86.49,47.8c1.82,0,3.64,0,5.46,0,1.49,0,2.66.48,2.61,2.24s-1.34,2.12-2.74,2.14c-3.47,0-6.95,0-10.42,0-1.38,0-2.79-.33-2.89-2-.13-2.07,1.43-2.32,3-2.35S84.84,47.8,86.49,47.8Z" transform="translate(-5.44 -5.29)"/><path class="cls-9" d="M13.32,52.13c-2,0-4,.08-5.93,0a2.12,2.12,0,0,1,0-4.23c4-.1,7.91-.09,11.87,0A2,2,0,0,1,21.48,50c0,1.44-1,2-2.23,2.12-2,.1-3.95,0-5.93,0Z" transform="translate(-5.44 -5.29)"/></svg>