<svg id="cloudy" xmlns="http://www.w3.org/2000/svg" viewBox="0 0 89.78 64.14"><defs><style>.cls-1{fill:#fefefe;}.cls-2{fill:#697b95;}.cls-3{fill:#fbce32;}</style></defs><title>cloudy</title><path class="cls-1" d="M63.85,82c-5.43,0-10.86.08-16.29,0-6.37-.1-10.45-3.18-12.07-8.89-1.49-5.24.42-10.21,5.63-13.47,1.85-1.16,2.13-2.48,2.36-4.37a17.81,17.81,0,0,1,15.35-16C66.09,38.14,73.74,42.73,77,50.53c.87,2.09,1.81,2.39,3.9,2.44,8.2.18,14,6.44,14,14.62A14.18,14.18,0,0,1,81,82c-5.72.21-11.46,0-17.19,0Z" transform="translate(-5.11 -17.93)"/><path class="cls-2" d="M23.34,75.38c-3.46,0-7,.29-10.14-1.52-4.93-2.81-7.88-6.94-8.08-12.73a14.16,14.16,0,0,1,7.57-13.46c2.57-1.44,3.14-2.91,3.37-5.53A22.5,22.5,0,0,1,32.15,22.88a23.08,23.08,0,0,1,24,7.91c1.89,2.46,3,4.23-1.48,5.31-8.31,2-12.8,8.09-14.84,16a9.52,9.52,0,0,1-3.3,5.58c-4,3.21-6.37,7.78-5.62,12.68.81,5.23-1.52,5.42-5.26,5A21.27,21.27,0,0,0,23.34,75.38Z" transform="translate(-5.11 -17.93)"/><path class="cls-3" d="M66.84,18c14.75,0,24.09,15.19,17.41,27.8-1.43,2.72-2.45,4.26-4.6.41a20.72,20.72,0,0,0-14-10.64A4.23,4.23,0,0,1,62.32,33a20.7,20.7,0,0,0-5.61-7.59c-2.38-2-2.41-3.27.44-4.77C60.29,18.93,63.47,17.73,66.84,18Z" transform="translate(-5.11 -17.93)"/></svg>