<svg id="fog" xmlns="http://www.w3.org/2000/svg" viewBox="0 0 75.65 79.69"><defs><style>.cls-1{fill:#fefefe;}.cls-2{fill:#6b7991;}.cls-3{fill:#6d7d94;}.cls-4{fill:#6c7c94;}.cls-5{fill:#6a7891;}.cls-6{fill:#6d7c94;}.cls-7{fill:#6d7b90;}.cls-8{fill:#6b778f;}.cls-9{fill:#6d7b91;}</style></defs><title>fog</title><path class="cls-1" d="M48.46,62.78c-6.82,0-13.64.07-20.46,0-7.81-.11-13.53-4.31-15.31-11.07s1.11-13.19,8-17c1.65-.92,1.82-1.88,2-3.43,1.14-11.19,8.53-19.44,18.58-20.85C52.08,8.89,61,14.14,65.56,24.86c.75,1.78,1.51,2.28,3.49,2.27,11,0,18.69,7.22,18.78,17.55s-7.78,18-18.9,18.09C62.11,62.85,55.29,62.79,48.46,62.78Z" transform="translate(-12.17 -10.15)"/><path class="cls-2" d="M34.23,81.67c-2.21,0-4.43,0-6.64,0-1.33,0-2.33-.51-2.39-2a2.05,2.05,0,0,1,2.19-2.26c4.57-.1,9.14-.13,13.7,0a2.26,2.26,0,0,1,2.45,2.52c-.17,1.37-1.41,1.77-2.68,1.78-2.21,0-4.42,0-6.63,0Z" transform="translate(-12.17 -10.15)"/><path class="cls-3" d="M44.61,89.83c-2.22,0-4.43,0-6.64,0-1.27,0-2.45-.44-2.42-2,0-1.23,1-1.76,2.14-1.78q7.08-.06,14.16,0c1.11,0,2.13.49,2.2,1.72.08,1.54-1.09,2-2.36,2-2.36.06-4.72,0-7.08,0Z" transform="translate(-12.17 -10.15)"/><path class="cls-3" d="M63.69,73c-2.22,0-4.44,0-6.65,0-1.29,0-2.38-.52-2.35-2,0-1.34,1-1.71,2.14-1.72,4.58,0,9.16-.06,13.74,0,1.25,0,2.49.5,2.39,2s-1.4,1.75-2.63,1.78C68.12,73,65.9,73,63.69,73Z" transform="translate(-12.17 -10.15)"/><path class="cls-4" d="M65.75,89.82c-1.48,0-3,0-4.42,0-1.24,0-2.5-.28-2.59-1.79s1.08-2,2.35-2c3.24,0,6.48,0,9.72,0,1.14,0,2.12.53,2.17,1.74.07,1.52-1.12,1.95-2.37,2C69,89.87,67.37,89.82,65.75,89.82Z" transform="translate(-12.17 -10.15)"/><path class="cls-5" d="M54.52,77.27c1.86.41,5.55-1.11,5.59,2.08,0,3.68-3.79,1.9-6,2.35a2.6,2.6,0,0,1-.88,0c-1.86-.27-4.85.88-4.77-2.27s3-1.88,4.9-2.16A10.69,10.69,0,0,1,54.52,77.27Z" transform="translate(-12.17 -10.15)"/><path class="cls-6" d="M45.54,72.92c-1.65,0-2.68.06-3.71,0s-2-.59-2-1.85.94-1.75,2.06-1.85a13.33,13.33,0,0,1,3.09,0c1.82.28,5-1,4.79,2.12C49.6,73.82,46.67,72.69,45.54,72.92Z" transform="translate(-12.17 -10.15)"/><path class="cls-7" d="M30.74,73c-1.22,0-2.11,0-3,0-1.25,0-2.42-.36-2.5-1.88s1.1-1.89,2.36-2a11.65,11.65,0,0,1,2.64,0c1.68.3,4.53-1,4.61,1.81S32.08,72.68,30.74,73Z" transform="translate(-12.17 -10.15)"/><path class="cls-8" d="M69.24,81.72c-1.84-.07-4.15.19-4.14-2.25s2.31-2.18,4.07-2.2,3.69-.08,3.83,2C73.16,81.84,70.92,81.63,69.24,81.72Z" transform="translate(-12.17 -10.15)"/><path class="cls-9" d="M27.9,89.85c-1.41-.06-2.79-.3-2.65-2.1s1.67-1.73,3-1.72,2.42.25,2.42,1.83C30.65,89.72,29.25,89.79,27.9,89.85Z" transform="translate(-12.17 -10.15)"/></svg>