<svg id="partly-cloudy-day" xmlns="http://www.w3.org/2000/svg" viewBox="0 0 87.18 74.85"><defs><style>.cls-1{fill:#fefefe;}.cls-2{fill:#fccd32;}.cls-3{fill:#e4c143;}.cls-4{fill:#ebc63e;}.cls-5{fill:#edc941;}.cls-6{fill:#ecc745;}.cls-7{fill:#eecf55;}</style></defs><title>partly-cloudy-day</title><path class="cls-1" d="M62.12,87.41c-5.71,0-11.43,0-17.15,0s-10.18-3.26-11.64-8.31a11.57,11.57,0,0,1,5.4-13.62,5.21,5.21,0,0,0,2.75-4.31c1.28-8.8,7.05-14.93,14.83-16,8.27-1.15,15.66,3,19.15,11.2.83,2,1.8,2.31,3.74,2.35,8.56.17,14.56,6.41,14.39,14.74-.17,8.12-6.2,13.87-14.74,14-5.58.06-11.15,0-16.73,0Z" transform="translate(-6.41 -12.57)"/><path class="cls-2" d="M58.88,40.58c-8.6,1-15.48,4.64-19.44,12.68a23.47,23.47,0,0,0-2,6.53C37,62.25,35,63.44,33.14,64.15s-2.75-1.58-3.64-2.87a18.22,18.22,0,0,1,5.13-25.6C42.05,30.67,55.12,32.7,58.88,40.58Z" transform="translate(-6.41 -12.57)"/><path class="cls-3" d="M42.52,19.3c0-1.58-.09-3.16,0-4.72.08-1,.57-2,1.82-2a2,2,0,0,1,2.19,2.12c.08,3.15.05,6.3.05,9.44,0,1.29-.54,2.33-1.92,2.42-1.69.11-2.15-1.12-2.2-2.53,0-1.57,0-3.15,0-4.72Z" transform="translate(-6.41 -12.57)"/><path class="cls-4" d="M28,69.73a8,8,0,0,1-1,1.66c-2.08,2.14-4.19,4.26-6.35,6.32-1,1-2.23,1.43-3.39.24s-.32-2.17.47-3c2.17-2.25,4.34-4.51,6.66-6.61C26,66.89,27.18,67.66,28,69.73Z" transform="translate(-6.41 -12.57)"/><path class="cls-5" d="M72.33,25.46a9.45,9.45,0,0,1-1.07,1.65c-2.07,2.14-4.2,4.23-6.32,6.31-.87.86-1.89,1.44-3,.44a1.94,1.94,0,0,1-.05-3c2.26-2.35,4.6-4.62,6.93-6.91a2,2,0,0,1,2.35-.35C71.93,23.92,72.14,24.56,72.33,25.46Z" transform="translate(-6.41 -12.57)"/><path class="cls-6" d="M19,23.34a7,7,0,0,1,1.58.95c2.16,2.06,4.26,4.18,6.37,6.29.88.88,1.39,1.93.45,3a1.94,1.94,0,0,1-3,.11c-2.36-2.26-4.67-4.58-7-6.92A2,2,0,0,1,17,24.41C17.33,23.69,18,23.4,19,23.34Z" transform="translate(-6.41 -12.57)"/><path class="cls-7" d="M12.24,53c-1.73-.86-5.88,1.82-5.83-2.14,0-3.2,3.93-1.42,6.09-1.78a26.49,26.49,0,0,1,4.71,0c1.35,0,2.76.2,2.8,1.89s-1.24,2-2.68,2S14.19,53,12.24,53Z" transform="translate(-6.41 -12.57)"/></svg>