<svg id="partly-cloudy-night" xmlns="http://www.w3.org/2000/svg" viewBox="0 0 96.29 83.33"><defs><style>.cls-1{fill:#697b95;}.cls-2{fill:#f3f5f6;}.cls-3{fill:#ebc63f;}.cls-4{fill:#a0addf;}.cls-5{fill:#6a7892;}</style></defs><title>partly-cloudy-night</title><path class="cls-1" d="M51.25,91.55c-8,0-16,.06-23.95,0S13.05,86.85,11,79.42a16.46,16.46,0,0,1,7.45-18.51c2.36-1.41,3.45-2.75,3.8-5.65C23.7,43,32.45,34.17,44,32.66c10.92-1.41,21.24,4.74,26,16,1.22,2.91,3,2.87,5.41,2.92,10.71.25,19.09,8,19.66,18.07.63,11.18-6.32,20.72-16.9,21.63-8.92.77-18,.16-26.93.16Z" transform="translate(-1.85 -8.33)"/><path class="cls-2" d="M81.14,14.47c-8.92,18.54-2.89,32.53,17,34C96.25,50,86.29,54.16,81.25,52c-21-9-16.64-19.24-16.43-21.19C65.68,22.92,72.59,15.76,81.14,14.47Z" transform="translate(-1.85 -8.33)"/><path class="cls-3" d="M53,13.62c-2.64,2.5-4.49,4.84-2.26,8.75-3.39-2-6.33-2.82-9.77,1.06.84-4.36,1.85-7.89-3.51-9.26,6.26-1.88,6.26-1.88,8.12-5.84C47.15,11.26,48.77,14.05,53,13.62Z" transform="translate(-1.85 -8.33)"/><path class="cls-4" d="M15.8,45.33c-2.61,2.09-3.66,4.16-1.66,8.23-3.63-2.76-6.16-3.2-9-.32.1-3.12,1.12-5.94-3.32-7.21,3.48-1.05,6.5-.92,6.79-5.48C10.7,43.68,12,46.45,15.8,45.33Z" transform="translate(-1.85 -8.33)"/><path class="cls-5" d="M10.19,26.75c-.1-2.84.19-5.31-3.39-6.69,3.4-.82,6.17-1.06,6.84-5.47,1.52,3.42,3,5.35,6.23,4.87-1,2.36-4.16,3.65-1.47,6.86C15.25,25.21,12.81,24.6,10.19,26.75Z" transform="translate(-1.85 -8.33)"/></svg>