<svg id="rain" xmlns="http://www.w3.org/2000/svg" viewBox="0 0 78.67 89.59"><defs><style>.cls-1{fill:#fefefe;}.cls-2{fill:#3099d2;}.cls-3{fill:#309ad5;}.cls-4{fill:#3099d5;}.cls-5{fill:#3196d2;}.cls-6{fill:#3294d5;}</style></defs><title>rain</title><path class="cls-1" d="M48.2,60c-6.94,0-13.88,0-20.82,0-8.14-.05-14.12-4.25-16.11-11.24s1-13.82,8.1-17.79c1.79-1,2.1-2.06,2.28-3.89C22.77,15.62,30.72,6.91,41.12,5.45c10.84-1.52,20.46,4.1,25,14.81.83,2,1.69,2.67,3.92,2.68,11.44,0,19.38,7.72,19.34,18.41,0,10.85-8.26,18.55-19.86,18.6C62.39,60,55.29,60,48.2,60Z" transform="translate(-10.66 -5.2)"/><path class="cls-2" d="M51,67.17c-.6,1.75-1.19,3.65-1.9,5.51C46.69,79.14,44.2,85.58,41.73,92c-.56,1.48-1.22,3.24-3.09,2.65s-1.71-2.29-1.1-3.9q4.53-12.07,9-24.15c.47-1.25,1.3-2.18,2.75-1.95C50.53,64.87,51.07,65.78,51,67.17Z" transform="translate(-10.66 -5.2)"/><path class="cls-3" d="M62,67.17c-2,5.18-3.93,10.54-6.2,15.74-.86,2-.9,6.07-4.24,4.73s-.47-4.38.2-6.4c1.65-4.94,3.79-9.71,5.73-14.56.5-1.22,1.25-2.21,2.73-1.94A2.08,2.08,0,0,1,62,67.17Z" transform="translate(-10.66 -5.2)"/><path class="cls-4" d="M17.55,85l2.12-5.46c1.63-4.16,3.24-8.33,4.89-12.48.6-1.52,1.47-3,3.39-2.12,1.71.74,1.22,2.33.72,3.63C26.46,74.3,24.18,80,21.93,85.76,21.46,87,20.88,88,19.32,87.88,17.92,87.76,17.61,86.8,17.55,85Z" transform="translate(-10.66 -5.2)"/><path class="cls-5" d="M65.71,81.33c-1.67-.21-2.75-1-2.2-2.44,1.66-4.43,3.44-8.83,5.35-13.16a2,2,0,0,1,2.79-.89c.89.43,1.59,1.21,1.19,2.2q-2.61,6.61-5.46,13.14C67.13,80.75,66.19,81,65.71,81.33Z" transform="translate(-10.66 -5.2)"/><path class="cls-6" d="M37.88,64.61c1.59.18,2.39,1,2.1,2.17-.84,3.39-1.79,6.77-3.8,9.68a2.4,2.4,0,0,1-2,.6A1.77,1.77,0,0,1,32.71,75a35.74,35.74,0,0,1,3.85-9.71C36.82,64.86,37.58,64.75,37.88,64.61Z" transform="translate(-10.66 -5.2)"/></svg>