<svg id="sleet" xmlns="http://www.w3.org/2000/svg" viewBox="0 0 75.29 79.15"><defs><style>.cls-1{fill:#fefefe;}.cls-2{fill:#3289ba;}.cls-3{fill:#388cb9;}.cls-4{fill:#378cbc;}.cls-5{fill:#378ebe;}.cls-6{fill:#388fc5;}.cls-7{fill:#3098c8;}.cls-8{fill:#3495d0;}.cls-9{fill:#3790c0;}.cls-10{fill:#3d8ec2;}.cls-11{fill:#3994c9;}.cls-12{fill:#359acf;}</style></defs><title>sleet</title><path class="cls-1" d="M48.65,62.69c-6.92,0-13.85.05-20.77,0C20.33,62.6,14.4,58.15,12.8,51.49S14,38.42,20.64,34.87A3.79,3.79,0,0,0,23,31.21C23.73,20.72,31,12.35,40.54,10.78,51.37,9,61,14.17,65.07,24.35c.93,2.3,2,2.94,4.45,2.92,10.1-.07,17.9,7.49,18.12,17.2S80,62.3,69.87,62.68H48.65Z" transform="translate(-12.35 -10.43)"/><path class="cls-2" d="M62.27,81.35a2.23,2.23,0,0,1-1.78-2.89c.3-1.14.56-3,2.17-2.68s2,2,2,3.5C64.62,80.62,63.69,81.29,62.27,81.35Z" transform="translate(-12.35 -10.43)"/><path class="cls-3" d="M50,75.65a3.93,3.93,0,0,1,2.18,3.54c0,1.46-1.13,2.07-2.35,2-1.46,0-2-1.17-1.85-2.46A3.35,3.35,0,0,1,50,75.65Z" transform="translate(-12.35 -10.43)"/><path class="cls-4" d="M68.79,89.57c-1.38-.12-2.25-.87-2.09-2.25s.5-3.29,2.22-3.25c1.39,0,1.76,1.77,1.86,3.1A2.05,2.05,0,0,1,68.79,89.57Z" transform="translate(-12.35 -10.43)"/><path class="cls-5" d="M56,84.15c1.65.07,1.85,1.38,2.09,2.46.31,1.45-.14,2.69-1.83,2.88-1.49.16-2.15-.83-2.07-2.18S54.62,84.7,56,84.15Z" transform="translate(-12.35 -10.43)"/><path class="cls-6" d="M68.67,67.51c1.56.37,2,1.65,2.1,2.94a2,2,0,0,1-2,2.34,2,2,0,0,1-2.1-2.22A3,3,0,0,1,68.67,67.51Z" transform="translate(-12.35 -10.43)"/><path class="cls-7" d="M45.57,70.39c0,1.37-.48,2.39-2,2.32s-1.89-1.14-1.78-2.45.4-2.59,1.75-2.64C45.26,67.56,45.32,69.17,45.57,70.39Z" transform="translate(-12.35 -10.43)"/><path class="cls-8" d="M45.56,87.05c-.06,1.33-.38,2.45-1.94,2.43s-2-1.13-1.83-2.43.29-2.63,1.67-2.75C45.28,84.14,45.25,85.85,45.56,87.05Z" transform="translate(-12.35 -10.43)"/><path class="cls-9" d="M33.1,87.2c-.08,1.39-.51,2.44-2.07,2.27s-1.94-1.2-1.71-2.52c.19-1.14.42-2.61,1.84-2.59C32.85,84.39,32.94,86,33.1,87.2Z" transform="translate(-12.35 -10.43)"/><path class="cls-10" d="M37.54,81.24a2,2,0,0,1-2-2.27c.06-1.32.46-3,1.79-3.1s1.89,1.5,2.07,2.81A2.08,2.08,0,0,1,37.54,81.24Z" transform="translate(-12.35 -10.43)"/><path class="cls-11" d="M31.4,72.74a2,2,0,0,1-2.11-2.17c0-1.35.26-2.83,1.89-2.9,1.42-.07,1.74,1.28,1.87,2.46S32.84,72.42,31.4,72.74Z" transform="translate(-12.35 -10.43)"/><path class="cls-12" d="M56.27,72.81a2,2,0,0,1-2-2.37c.12-1.33.48-2.87,2.12-2.8,1.4.07,1.54,1.62,1.74,2.74A1.94,1.94,0,0,1,56.27,72.81Z" transform="translate(-12.35 -10.43)"/></svg>