<svg id="snow" xmlns="http://www.w3.org/2000/svg" viewBox="0 0 77.92 88.52"><defs><style>.cls-1{fill:#a3afe4;}</style></defs><title>snow</title><path class="cls-1" d="M21.55,36.85c-3.55-2.11-6.25-3.67-8.9-5.31-1.29-.79-2-2-1.33-3.5.83-1.83,2.41-2,4-1.2,2.79,1.38,5.49,2.94,8.33,4.47,1.31-2.13.25-4,.35-5.88s-.43-4.29,2.48-4.45c2.37-.13,3.09,1.82,2.87,3.63-1.57,12.72,8.79,15,17.68,20.23,0-6.44.4-12.05-.15-17.55-.35-3.37-4.47-4.09-6.64-6.26-1.75-1.77-6-2.89-3.4-6.23,2.2-2.85,4.47.32,6.53,1.55,1,.58,1.74,1.64,3.16,1.39,1-1.59.32-3.4.61-5.08.45-2.6-1.54-7.09,3-6.91,4.37.17,2.06,4.6,2.54,7.17a26.78,26.78,0,0,1,0,4.75c3,.28,4.37-2,6.28-3.2,1.5-.93,3-1.21,4.18.36s.62,2.94-.84,4a3.11,3.11,0,0,1-.46.37C50.17,24.29,52.49,34.39,53,44.35c5.48-2.12,10.21-5.22,14.89-8.3,2.82-1.86,1.1-5.55,2.2-8.24,1-2.43-.89-7.3,3.56-6.67,4.82.67,1.69,5,1.85,7.8,0,.58,0,1.16,0,2.26,2.93-.36,4.89-2.34,7.21-3.44,1.89-.9,4-2.75,5.7-.14s-.91,3.74-2.68,4.85c-2.15,1.35-4.38,2.57-6.78,4,1.54,2.41,4.12,2.4,6,3.47,1.57.89,2.59,1.94,2,3.75s-2.17,2.08-3.88,1.49a2.07,2.07,0,0,1-.56-.2c-10.2-7.53-17.83-.76-26.1,4.87,4.37,3.79,9.62,5.88,14.38,8.74,1.57.94,3,0,4.48-.63,2.55-1,5.07-2.18,7.62-3.22,1.63-.67,3.21-.58,4,1.23S86.8,59,85.14,59.77c-2,.89-3.93,1.74-6.32,2.8,2,2.69,5,3.34,7.3,5,1.6,1.16,3.79,2.11,2.26,4.53-1.42,2.22-3.44,1.2-5.21.23-2.4-1.31-4.77-2.66-7.21-4-1.23,2.67.36,4.89.19,7.19-.12,1.69-.51,3.16-2.52,3.39s-2.74-1.12-3.11-2.79a2,2,0,0,1-.08-.58C72,62.72,61.9,60,52.7,55.12c0,5.89.07,11.27,0,16.66,0,1.94,1.27,2.81,2.47,3.74,2,1.57,4.26,2.86,6.22,4.5,1.41,1.17,3.63,2.44,1.89,4.79-1.6,2.15-3.42,1.14-5.12-.14-1.39-1-2.86-2-5.43-3.81,0,3.91,0,6.91,0,9.91,0,1.67-.38,3.28-2.41,3.47-2.35.22-3.07-1.43-3.14-3.37-.09-2.93,0-5.88,0-9-3,.27-4.41,2.4-6.42,3.47-1.51.8-3.1,1.15-4.18-.51a2.76,2.76,0,0,1,.72-3.72A5.44,5.44,0,0,1,38.58,80c11.67-5.13,8.29-15.11,8.21-24.9-5,2.81-9.43,5.31-13.86,7.75-2,1.09-2.5,2.87-2.69,4.93-.25,2.75-.53,5.5-.93,8.23-.25,1.66-1,3-3.08,2.82S23.92,77.11,24,75.43c0-2.13,0-4.26,0-6.47-3,.14-5,2.28-7.45,3.45-1.81.87-3.83,1.92-5.12-.5-1.09-2.06.55-3.24,2.14-4.2,2.34-1.42,4.69-2.82,7.41-4.45-1.78-2.13-4.22-2.34-6.13-3.42C13.37,59,12,58,12.92,56.12a2.8,2.8,0,0,1,4-1.48,3,3,0,0,1,.55.22c10.24,7.61,17.76.34,26.62-5-5.19-3-9.8-5.8-14.51-8.41-3-1.65-5.19,1-7.7,1.77-1.87.6-3.63,1.56-5.51,2.11a2.62,2.62,0,0,1-3.44-1.51,2.55,2.55,0,0,1,1.35-3.47C16.31,39.24,18.46,38.3,21.55,36.85Z" transform="translate(-11.04 -5.74)"/></svg>