<svg id="wind" xmlns="http://www.w3.org/2000/svg" viewBox="0 0 79.21 63.8"><defs><style>.cls-1{fill:#6b7a93;}.cls-2{fill:#6c7b93;}</style></defs><title>wind</title><path class="cls-1" d="M55.8,51c-7.44-.72-14.88-1.51-22.32-2.14a24.47,24.47,0,0,0-17.63,5.59c-1.43,1.12-3.26,3.38-5,.9-1.42-2,.93-3.28,2.24-4.36,8.55-7,18.47-7.45,28.83-5.89,9.94,1.49,19.84,1.62,29.73-.77,7.59-1.83,15,2,17.21,8.43A15.23,15.23,0,0,1,81.28,71c-6.77,3.4-16.24.41-18.92-6.06-.65-1.57-2-3.66.44-4.73,2.12-.91,2.75,1.19,3.49,2.65,2.32,4.61,6.36,5.65,11,4.91s7.06-4.09,7.8-8.58c1-6-2.34-10-8.42-10.42C69.58,48.31,62.91,51.61,55.8,51Z" transform="translate(-10.4 -18.1)"/><path class="cls-2" d="M30.19,32.7c8.71-.13,16.27,2.3,24.08,2.71,2.5.14,4.94.33,7.39-.48,2.88-1,4.72-2.8,4.42-5.83s-1.92-5.71-5.49-6.16a19.57,19.57,0,0,0-6.94.38A2.42,2.42,0,0,1,50.72,22c-.5-1.13.33-1.8,1.2-2.4,4.36-3,13.25-1.3,16.31,3.07C73,29.51,70.56,36.72,62.47,39.1c-6.64,1.95-13.2.09-19.77-.7-4.94-.59-9.81-2-14.84-1.44a24.38,24.38,0,0,0-11.61,4.11c-1.48,1-3.49,3.31-5.12.94C9.3,39.34,12.42,38.24,14,37.24,19.15,34,24.8,32.09,30.19,32.7Z" transform="translate(-10.4 -18.1)"/><path class="cls-1" d="M38.19,55.82c5.41.32,11.27,1.21,15.52,6.24,4.06,4.81,3.76,11.06-.71,15.77s-11.45,5.44-16.22,1.64a8.87,8.87,0,0,1-2.18-2.65,2.21,2.21,0,0,1,.6-3.1c1-.71,1.93-.07,2.63.65,2.05,2.09,4.19,3.89,7.41,3,3.93-1,6.45-3.5,6.8-7.62.3-3.61-3.36-7.6-7.68-8.69-7.58-1.91-14.78-.8-21.8,2.5-2.12,1-5,4.54-6.7,1.25-1.52-2.93,2.83-3.74,4.92-4.95C25.92,56.91,31.62,55.89,38.19,55.82Z" transform="translate(-10.4 -18.1)"/></svg>